<?xml version="1.0" encoding="UTF-8"?>
<!-- Creator: CorelDRAW -->
<svg width="42cm" height="29.7cm" fill-rule="evenodd" image-rendering="optimizeQuality" shape-rendering="geometricPrecision" text-rendering="geometricPrecision" version="1.1" viewBox="0 0 42000 29700" xml:space="preserve" xmlns="http://www.w3.org/2000/svg" xmlns:cc="http://creativecommons.org/ns#" xmlns:dc="http://purl.org/dc/elements/1.1/" xmlns:rdf="http://www.w3.org/1999/02/22-rdf-syntax-ns#"><metadata><rdf:RDF><cc:Work rdf:about=""><dc:format>image/svg+xml</dc:format><dc:type rdf:resource="http://purl.org/dc/dcmitype/StillImage"/></cc:Work></rdf:RDF></metadata><defs><style type="text/css">
    .fil0 {fill:#0093DD}
    .fil5 {fill:#1F1A17}
    .fil3 {fill:#DD137B}
    .fil4 {fill:#627480}
    .fil2 {fill:#EC9E2F}
    .fil1 {fill:#EF9B35}
    .fil6 {fill:#D8D7D3;fill-opacity:0.819608}
   </style></defs><g transform="translate(1128.9)" fill="#0093dd"><path class="fil0" d="m36462 25217 53-197-151 231c-17 21-40 36-70 46-29 11-61 16-95 16h-251c-90 0-167-27-231-80-70-59-105-132-105-220 0-19 1-34 4-45 43-302 112-539 206-711 74-135 163-230 269-285 66-34 140-52 221-52 32 2 51 3 57 3h443l95-289c0-50-23-75-71-75h388c26 0 49 8 69 25 18 19 27 42 27 67l-451 1533c0 32 12 62 35 87 22 28 49 42 82 42h-387c-51 0-88-3-110-10s-33-24-33-52c0-5 2-17 6-34zm72-264 207-740h-226c-133 0-225 27-274 80-74 78-144 257-210 536-2 7-3 13-3 21 0 31 20 62 60 93 48 39 105 59 171 59 55 0 112-5 170-15 56-9 91-20 105-34zm-1443-1234c9-28 13-54 13-80 0-49-23-78-69-88h394c35 0 62 2 84 5 20 4 30 20 30 50 0 5-2 16-6 33l-362 1506c-3 19-6 35-8 49-4 14-6 29-6 47 0 32 18 57 53 72h-385c-68 0-102-33-102-98 0-24 4-48 11-70l353-1426zm-1377 284c4-21 6-36 6-46 0-42-17-62-51-62h389c42 0 71 8 86 25 16 19 24 44 24 73 0 14-2 30-6 47l61-99c9-19 22-31 38-38 15-6 33-8 57-8h401l-54 186c0 24-13 46-39 64-28 21-55 32-81 32h-292c-101 0-160 35-180 106l-252 924c-1 6-3 14-3 21 0 15 6 32 19 49 15 24 38 36 69 36h-410c-42 0-72-9-90-26-16-12-24-28-24-46 0-6 1-11 3-16l329-1222zm-969-111c176 0 311 22 407 65 130 59 195 158 195 298 0 393-94 676-281 848-151 138-364 207-641 207-181 0-320-33-416-100-97-66-146-162-146-288 0-22 1-39 3-51 42-392 154-665 338-818 127-107 308-161 541-161zm0 244c-143 0-241 36-293 109-64 88-134 298-209 631-2 7-3 15-3 25 0 48 28 89 83 122 56 34 116 52 180 52 134 0 242-78 326-233 92-171 138-342 138-515 0-72-18-122-53-149-36-28-93-42-169-42zm-3041-153c0-16-7-33-21-52-13-19-30-31-50-36h387c20 0 33 6 40 20 4 9 6 20 6 34l21 883 519-937h374v947l452-854c12-19 18-36 18-52 0-11-6-18-18-23-14-5-28-11-42-18h362c32 0 48 20 48 62 0 26-9 54-27 85l-706 1271h-322c-77 0-115-32-115-96l-6-782-478 878h-334c-68 0-102-27-102-80l-6-1250zm-1792-88h709l-45 162c-10 40-50 60-120 60h-328c-91 0-153 10-189 31-48 27-72 81-72 161 0 58 108 108 323 149 214 42 320 138 320 288 0 183-47 323-141 420-95 98-220 147-373 147h-771c-19 0-35-7-49-21-20-19-30-38-30-57 0-7 1-13 3-21l81-243h20c-2 9-3 17-3 23 0 23 10 41 28 55 23 17 70 26 138 26 23 3 63 5 119 5 80 0 166-3 258-8 89-5 137-12 143-21 30 0 58-21 84-64 25-41 42-83 51-125v-10c0-58-105-111-314-158-222-46-333-121-333-222 0-166 44-304 132-414 86-109 205-163 359-163zm-377-308-314 458h-209l173-458h350zm-1568 603h-137l57-249c112 0 216-28 314-85 97-55 165-128 203-220h141l-63 261h383l-19 220c0 26-13 44-38 55-26 11-59 18-99 18h-215c-64 0-102 24-114 75l-179 670c-2 5-3 13-3 26 0 50 24 75 72 75h275c26 0 54-12 83-37 30-24 48-49 54-75l-87 322c-5 21-20 38-44 52-26 15-55 23-87 23h-655c-32 0-60-11-84-34-17-17-26-35-26-54 0-7 1-14 3-21l265-1022zm-493 458h-831c-8 38-15 76-21 114-8 38-12 69-12 93 0 48 14 82 42 101s76 28 144 28h289c90 0 148-1 174-5 80-10 143-46 188-108l-92 331c-9 30-35 55-78 77-44 23-90 34-138 34h-529c-134 0-233-22-296-64-76-52-113-139-113-259 0-32 0-56 3-73 41-417 116-693 224-825 107-132 316-197 627-197 255 0 421 22 497 67 76 46 114 140 114 280 0 84-13 175-39 271-18 50-29 85-34 104-4 21-43 31-119 31zm-419-503c-105 0-183 25-233 72-37 37-74 105-111 206h566c14-45 21-84 21-117 0-52-16-90-48-114-40-31-105-47-195-47zm-1755-154-56 205 158-234c18-28 39-46 63-54 21-8 54-11 98-11h245c104 0 186 27 246 80 58 56 87 127 87 215 0 25-1 44-3 58-32 212-62 365-90 460-52 178-123 314-212 407-114 117-262 175-446 175h-452l-93 298c-1 5-3 11-3 15 0 13 7 25 19 37 14 17 30 26 47 26h-377c-23 0-47-10-71-29s-36-42-36-69l451-1538c7-15 10-29 10-41 0-28-12-51-36-68s-51-26-81-26h385c47 0 85 7 115 21 23 11 35 28 35 52 0 7-1 14-3 21zm-74 269-216 747h225c24 2 43 3 59 3 82 0 151-30 206-91 90-98 165-278 225-538 2-7 3-13 3-20 0-38-20-72-60-101-48-35-103-52-168-52-44 0-99 7-167 21-69 14-105 24-107 31z"/><path class="fil0" d="m20073 25126 83-345h419l-90 345h-412zm-1890 0 83-345h419l-89 345h-413zm-1890 0 83-345h419l-89 345h-413zm-918-1419h708l-45 163c-10 40-50 60-120 60h-328c-90 0-153 10-189 31-48 27-72 80-72 160 0 59 108 109 324 150 213 42 320 137 320 287 0 183-48 323-141 420-96 98-221 148-374 148h-771c-19 0-35-7-48-21-21-19-30-38-30-57 0-7 1-14 3-21l80-243h21c-2 9-3 16-3 23 0 22 9 40 27 54 24 17 70 26 138 26 24 4 64 5 119 5 80 0 166-2 258-8 89-4 137-11 143-20 30 0 58-22 84-64s43-83 51-125v-10c0-59-105-112-314-158-222-47-332-121-332-222 0-166 44-304 131-415 86-109 206-163 360-163zm-377-307-315 458h-209l173-458h351zm-1569 602h-137l57-248c112 0 217-28 314-85 97-56 165-129 203-220h141l-63 261h383l-18 220c0 26-13 44-39 54-26 12-59 18-98 18h-216c-64 0-102 25-114 75l-179 670c-2 5-3 14-3 26 0 50 24 75 72 75h275c26 0 54-12 83-36 31-25 49-49 55-75l-88 322c-5 20-20 37-44 51-26 16-55 23-87 23h-655c-31 0-59-11-84-33-17-18-26-36-26-55 0-7 1-13 3-21l265-1022zm-492 459h-832c-8 37-15 75-21 114-8 38-12 68-12 93 0 48 14 81 42 100s76 29 144 29h289c90 0 148-2 174-5 80-11 143-47 189-109l-93 331c-8 30-34 56-78 78s-89 34-137 34h-530c-134 0-232-22-296-65-75-52-113-138-113-259 0-31 1-56 3-73 42-417 116-692 224-825 107-131 316-197 628-197 255 0 420 22 496 68s114 139 114 279c0 85-13 175-39 272-18 50-29 85-33 103-4 21-44 32-119 32zm-419-503c-106 0-183 24-233 72-38 37-75 105-111 205h565c14-45 21-84 21-116 0-52-16-90-48-115-39-30-104-46-194-46zm-1755-155-57 205 158-233c18-28 39-46 63-55 22-7 55-10 98-10h246c103 0 185 26 245 80 58 56 87 127 87 215 0 24-1 43-3 57-32 212-62 366-90 461-52 178-122 313-212 406-114 117-262 176-446 176h-452l-92 297c-2 6-3 11-3 16 0 12 6 25 18 36 14 17 30 26 48 26h-377c-24 0-48-9-72-28-23-19-35-43-35-70l451-1538c6-15 9-29 9-41 0-28-12-50-36-67-24-18-51-26-81-26h386c46 0 84 6 114 20 24 11 36 28 36 52 0 7-1 14-3 21zm-75 269-215 748h224c24 2 44 2 60 2 81 0 150-30 205-91 91-98 166-277 225-537 2-7 3-14 3-21 0-38-20-71-59-101-48-34-104-51-169-51-43 0-99 7-167 20-69 14-105 24-107 31zm-2383 968 60-212-147 212c-12 19-32 38-60 57s-54 29-78 29h-334c-76 0-135-24-179-71-47-46-70-116-70-208 0-103 29-229 87-381 58-150 101-229 129-236 10-26 45-45 105-56 57-13 121-19 191-19h454c50 0 80-2 90-8 23-12 35-44 35-98 0-61-33-91-98-91h-466c-50 0-83-9-99-28-14-14-21-31-21-50v-10l27-160h813c96 0 168 18 218 54 48 38 72 87 72 145 0 30-6 59-18 88l-227 916c-14 44-21 80-21 109 0 39 11 68 33 85 16 13 32 19 48 19h-464c-21 0-41-10-59-29-16-14-24-27-24-42 0-4 1-10 3-15zm-308-243h373l105-383h-316c-85 0-149 36-192 107-36 56-54 118-54 185 0 26 8 48 24 65s36 26 60 26zm-2168-1090h708l-45 163c-10 40-50 60-119 60h-329c-90 0-153 10-189 31-47 27-72 80-72 160 0 59 108 109 324 150 213 42 320 137 320 287 0 183-47 323-141 420-96 98-220 148-374 148h-771c-18 0-34-7-48-21-20-19-30-38-30-57 0-7 1-14 3-21l81-243h20c-2 9-3 16-3 23 0 22 9 40 27 54 24 17 70 26 139 26 23 4 63 5 118 5 80 0 166-2 258-8 89-4 137-11 143-20 30 0 59-22 84-64 26-42 43-83 51-125v-10c0-59-104-112-314-158-221-47-332-121-332-222 0-166 44-304 132-415 85-109 205-163 359-163zm-377-307-314 458h-210l174-458h350zm-1568 602h-137l57-248c111 0 216-28 314-85 97-56 164-129 202-220h141l-62 261h382l-18 220c0 26-13 44-38 54-26 12-59 18-99 18h-216c-63 0-102 25-114 75l-178 670c-2 5-4 14-4 26 0 50 24 75 72 75h275c26 0 54-12 84-36 30-25 48-49 54-75l-87 322c-6 20-21 37-45 51-26 16-55 23-86 23h-656c-31 0-59-11-84-33-17-18-26-36-26-55 0-7 1-13 3-21l266-1022zm-777-419 42-199h305c42 0 68 6 80 20 8 11 13 22 15 34 0 5-1 11-3 15l-48 184h-296c-37 0-63-4-75-13-13-8-20-22-20-41zm-52 275c0-37-5-68-15-94-9-24-30-40-62-49h424c21 0 39 10 55 29 11 15 17 31 17 46v11l-311 1200c0 43 4 74 12 94s28 31 60 31h-398c-22 0-42-9-60-26-18-18-27-41-27-71l305-1171z"/></g><path class="fil0" d="m25918 9204c752 148 1334 262 1321 2290-1 54-55 107-109 107-191-3-376-2-558-1-958 6-1798 10-2629-493-510-308-990-724-1354-1251-71-104-138-211-199-321-60-110-116-225-167-346h-1v-1c-434-1028-424-2022-115-2879 253-705 709-1317 1284-1778 575-459 1271-769 2005-870 901-124 1859 66 2723 675 169 120 490 392 722 624 49 50 92 95 125 132 37 41 70 81 98 119 0 0 3 4 3 4 929 1271 890 2970 848 4802-11 484-22 978-16 1473v1c1 65-65 120-129 106l-1560-326c-2-1-25-8-26-9-907-454-818-2431-751-3919 15-322 28-621 30-870v-2c1-84 101-136 170-86l282 202c-145-401-293-798-547-955l-347 663c-16 31-74 61-109 56l-1607-215c-17-2-64-30-74-44l-162-228c0-1-6-11-7-12-59-109-94-196-126-273-46-113-82-201-179-301l-473 855 179-126c76-53 185 18 167 109-27 132-57 258-88 388-214 908-471 1998 715 2517 224 97 450 142 661 183z"/><path class="fil1" d="m27131 11493c17-2535-918-1938-1916-2374-1447-633-895-2023-690-3025l-559 395 762-1381c287 230 254 371 429 693l161 229 1608 215 395-754c436 162 597 830 817 1388l-568-407c-11 1403-370 4178 662 4694l1560 327c-31-2362 339-4645-814-6218-174-238-690-689-921-851-3043-2147-7283 1063-5736 4723 350 830 985 1450 1677 1869 961 581 1952 462 3133 477z"/><path class="fil2" d="m22443 15566c177 237 494 368 763 368l100-715-863 347z"/><path class="fil3" d="m18293 20792c835 71 1408-41 1821-501 448-500 420-1159 443-1967l131-4832 744 698 868-961c316 224 192 585 456 790 325 253 457 115 818 547 1301 1559 45 2247-1147 2570l-641 2291c3567 308 5358-2400 3995-5468-87-196-233-397-346-574-1419-2219-5285-2247-6583 362-625 1257-556 5383-559 7045z"/><path class="fil4" d="m25077 7496c14 749 816 582 909 320 192-537-692-615-909-320z"/><path class="fil0" d="m6594 10751c36 2 79 2 127 2 48-2 91-10 127-29 36-17 57-52 58-103-1-26-20-105-56-240-38-134-83-318-136-549-54-233-109-508-162-826-54-318-100-673-136-1065-36-391-55-814-57-1268v-156c2-72 5-155 9-249s12-191 23-288c10-98 26-189 46-273 21-84 48-152 80-204s72-78 120-79c54 1 108 33 162 92 54 60 106 136 155 229 50 91 97 188 139 288 43 99 81 190 112 273 32 84 57 144 74 185 127 296 230 565 308 810 78 243 140 461 188 653 48 191 91 359 127 501 38 142 79 260 125 353 45 94 104 163 178 208 72 46 169 69 289 69 95 0 171-23 227-69 55-45 100-114 133-208 33-93 64-211 93-353s63-310 104-501c42-192 98-410 170-653 73-245 168-514 288-810 18-43 45-107 80-191 33-84 75-175 121-275s96-195 149-286c52-91 106-166 161-224 55-60 107-90 157-91 48 1 87 27 119 79s58 120 77 204c18 84 33 175 41 273 11 97 16 194 21 288 3 94 4 177 4 249s-1 124-1 156c-2 454-19 877-51 1268-33 392-74 747-123 1065s-98 593-146 826c-49 231-90 415-123 549-33 135-51 214-52 240 1 51 22 86 58 103 36 19 79 27 127 29 49 0 91 0 127-2h1111c32 2 62 2 95 0 32-2 64-17 94-43 32-26 61-75 90-147 29-73 55-178 78-317 25-139 47-321 64-547 17-225 32-505 42-839s14-733 14-1196c0-610-8-1136-24-1579-18-441-41-813-68-1115-29-301-61-544-97-732-35-186-72-329-112-428-39-100-76-169-114-207-37-39-72-60-104-65s-58-7-79-4h-677c-83-1-158 2-223 7-67 8-133 28-200 62-65 35-141 92-225 173s-187 193-307 339c-182 225-334 429-455 612-120 184-219 347-292 489-74 142-133 260-175 357s-77 171-103 220-52 75-77 75c-40 0-81-39-121-117-39-77-93-191-158-340-66-149-159-332-279-549s-282-466-483-747c-106-144-195-256-270-337-76-79-144-137-204-172-62-34-126-56-190-63-63-7-137-10-221-9h-798c-22-3-48-1-80 4s-66 26-104 65c-38 38-75 107-114 207-39 99-75 242-112 428-36 188-68 431-96 732-28 302-51 674-67 1115-17 443-26 969-26 1579 0 463 6 862 14 1196 11 334 25 614 42 839 19 226 39 408 64 547 23 139 51 244 78 317 29 72 58 121 90 147s62 41 95 43c32 2 64 2 94 0h929zm8061 131c261 0 507-40 734-116 229-78 428-191 602-339 173-148 308-331 406-545 97-215 148-460 149-736 0-19-1-56-6-110-4-55-11-114-23-176-11-64-27-117-47-164-21-44-48-69-80-71-19 2-38 29-58 81-19 51-46 119-81 200-33 82-82 169-144 262-64 92-149 179-255 262-107 81-243 149-406 199-164 52-365 80-600 81-112 0-229-17-355-52-124-35-243-84-354-146-113-64-204-137-275-223-71-85-107-179-110-282 2-111 42-206 120-285 78-78 184-146 317-205 133-58 282-114 447-166 166-54 337-110 513-171 177-61 347-133 514-217 164-82 313-184 446-302 134-119 239-262 317-431 78-168 119-369 120-600-1-256-49-482-140-677-93-194-220-357-382-489-163-130-350-230-561-296-211-67-438-100-678-100-234 0-463 42-689 124-224 84-435 210-632 376-196 168-371 376-520 628-151 252-269 545-354 879-86 336-129 715-131 1134 0 279 26 550 80 811 53 262 134 505 246 729 111 226 253 422 426 592 172 169 379 301 619 396 239 95 514 143 825 145zm86-4790c84 0 168 14 254 43 85 29 163 71 235 127 71 55 129 125 172 207 45 81 67 175 68 282-1 74-42 145-117 213-76 66-175 130-296 188-122 59-250 113-389 160-139 48-271 89-398 122-127 35-234 61-323 79-86 18-140 28-160 28-56-2-96-22-120-59-25-38-36-83-36-132 0-103 16-210 47-324 32-114 80-227 141-337 62-110 139-210 228-299 90-90 193-162 310-216 115-53 244-81 384-82zm4539 1570c-173-1-320-40-446-115-126-76-223-180-292-313-68-133-103-285-104-457 1-186 39-344 114-476 74-133 175-232 301-303 127-70 269-106 427-106 157 0 300 36 426 106 126 71 227 170 301 303 75 132 113 290 114 476-1 185-39 344-114 476-74 132-175 233-301 304-126 69-269 105-426 105zm0-2594c-390 1-724 75-1001 220-278 144-490 353-639 625-149 271-225 597-226 977 1 187 23 353 65 499 42 145 93 273 155 383s123 207 185 288 113 150 155 208 63 107 65 149c-2 39-26 78-74 115-46 36-109 75-182 118-75 43-155 94-239 155-84 59-163 131-239 218-73 86-135 190-182 313-47 121-72 267-73 435 1 178 34 335 98 474 65 138 155 253 269 347 114 96 247 167 398 216 150 49 312 74 484 74 110-2 215-12 318-34 103-21 204-47 301-81 97-33 191-68 283-102 144-58 282-109 418-151 135-42 268-65 398-66 120 3 216 24 286 68 71 43 128 92 171 149 43 56 84 105 120 149 38 43 83 65 135 68 52-3 107-37 163-103 56-67 110-151 163-255 52-102 100-209 142-321 42-111 75-214 101-308 25-94 38-163 38-211-1-62-27-120-77-172-49-52-112-98-189-140-77-41-159-75-243-104-85-28-165-50-239-65-72-15-130-22-172-22-204 3-400 24-590 68-188 43-364 92-529 149-165 56-312 105-446 149-131 43-244 65-335 68-54 0-101-15-146-41-45-24-80-61-107-104-28-45-42-95-42-150 1-64 35-128 98-193 64-63 148-121 252-175 104-53 218-97 341-130 125-32 246-48 368-49 258-1 488-38 691-107 201-69 376-165 523-286 149-123 271-262 366-421 97-158 168-326 216-503 46-178 69-358 69-540-3-233-26-424-69-573-44-150-94-273-152-367s-109-173-152-239-67-130-69-192c2-90 30-155 83-195 54-42 120-69 200-84 81-14 161-25 240-32 80-6 146-19 200-37 53-19 82-54 84-103-2-30-19-74-53-132-33-59-76-124-130-193-55-71-114-139-178-204-63-65-125-119-188-161-60-42-115-64-163-65-69 1-135 30-197 82-62 54-123 121-183 199-60 79-120 157-183 237-62 78-127 144-195 198-69 52-143 79-223 82-13 0-34-4-63-11-30-6-67-15-110-23-48-9-101-18-162-25-61-6-129-10-202-10z"/><path class="fil3" d="m28660 15572c131-294 300-552 503-781s423-417 659-567c235-147 468-248 695-302 47-9 87 1 115 33 28 30 43 70 41 119 1 61-46 153-144 278-97 126-235 265-414 419s-391 302-638 444c-246 143-519 262-817 357zm7347-2847c37-45 84-107 144-176 58-73 118-149 180-230 61-81 112-162 155-239 42-79 64-148 68-210 0-72-23-126-66-163-46-39-101-65-168-81-64-15-127-21-187-23-192-3-360 28-505 93-143 65-271 153-383 266-113 111-217 235-317 371-98 135-200 271-302 407-284 0-523 14-718 37-195 24-360 64-495 120-136 59-259 138-367 242-108 102-219 235-333 395-112 162-242 357-392 587l-154 237c139-16 249-28 327-37 78-7 143-12 195-13 49 0 102 1 156 5s127 8 219 13c91 5 216 11 377 15-265 413-575 790-935 1131-110 104-222 206-337 306l-2-12c-183 140-389 293-615 460-228 168-465 329-715 485-252 154-504 278-759 376-255 95-502 142-741 140-146-5-283-29-414-77-128-46-231-121-306-223-75-103-107-238-91-407l35-294c647-194 1182-398 1608-607 426-211 763-422 1008-634 245-215 421-417 525-615 104-196 156-378 158-543 2-134-24-242-80-329-58-86-132-153-226-203-95-49-197-84-308-105-113-21-222-31-332-34-350-10-703 45-1057 164-354 120-690 291-1009 512s-605 477-855 771c-250 295-446 611-590 948-144 338-216 685-220 1038 1 223 28 440 84 650 55 209 141 399 254 568 116 171 262 307 440 410 178 104 389 159 632 168 266 5 537-34 810-115 275-84 546-197 814-344 270-146 529-311 778-493 249-185 482-378 698-575 140-129 270-255 390-379l92-69 26 27c-62 130-122 269-179 417-58 148-105 301-143 456-38 156-58 309-64 457-6 180 26 338 89 474 63 135 158 243 281 320 123 78 274 120 448 127 230 4 468-40 716-134 249-93 500-218 753-376 250-156 496-327 736-513 238-185 462-368 673-550 208-182 396-344 559-487l-50-591c-353 238-656 441-907 611-251 169-462 308-637 415-176 107-327 183-454 233s-241 71-346 68c-152-4-256-50-314-132-55-84-81-199-74-348 8-203 56-416 145-642 87-225 199-450 330-672 134-222 274-432 418-629s276-368 397-514c292 29 537 29 735 6 199-24 366-75 502-154 136-76 258-182 362-315 105-134 207-294 309-485 102-192 220-412 350-663l-829-91z"/><path class="fil5" d="m21482 22429c0 48-35 72-106 72-50 0-75-15-75-47 0-14 9-37 27-69l-1-284c-417 288-735 433-954 433-149 0-223-60-223-181 0-162 104-325 314-490 242-190 529-285 862-286v-308c0-82-60-123-178-123-108 0-227 31-358 91-131 61-230 132-296 215 0 48-21 72-65 72-23 0-47-10-73-29-27-19-40-41-40-63 0-37 34-66 103-86 93-94 206-172 338-234 144-68 276-103 397-103 201-1 302 86 302 260l2 1116c16 16 24 31 24 44zm-142-657c0-32-4-60-13-85-16-5-36-7-59-7h-54c-158 0-328 55-510 165-94 57-186 130-277 216-116 115-174 208-174 282l10 44c9 16 37 24 82 24 160 0 357-64 592-190 269-144 404-294 403-449zm1631 189c-2 18-5 29-7 34-80 149-181 271-304 367-141 110-289 165-442 165-148 0-266-47-352-143-87-96-131-219-131-370 0-73 12-156 37-250 57-210 151-382 283-517 153-156 330-234 530-234 172 0 272 50 302 150 16 25 24 51 24 79 0 52-24 79-72 79-54 0-90-36-106-106-55-55-122-82-202-82-144 0-280 77-407 230-105 126-180 269-225 429-18 64-27 125-27 185 0 116 31 215 93 297 66 89 156 134 270 133 199 0 400-137 602-412 9-73 32-109 69-109 43-1 65 25 65 75zm1510-3c-2 18-5 30-7 34-80 149-181 271-304 367-141 110-289 165-441 165-149 1-267-47-353-143-87-96-131-219-131-369 0-73 12-157 37-250 57-211 151-383 283-518 153-155 330-233 530-234 172 0 272 50 302 150 16 25 24 52 24 79 0 52-24 79-72 79-54 0-90-35-106-106-55-55-122-82-202-82-144 0-280 77-407 230-105 126-180 269-225 429-18 64-27 125-27 185 0 116 31 215 93 297 66 89 156 134 270 133 199 0 400-137 602-412 9-73 32-109 69-109 43 0 65 25 65 75zm1560-493c-29 16-58 31-85 45-60 27-133 54-220 79-152 42-292 74-423 97-176 30-280 45-312 45-32 114-49 202-51 264v72c-2 66 9 129 35 188 46 105 122 157 229 157l38 3c130 0 261-50 394-151 104-80 177-172 218-274l-10-35c-5-38 16-58 61-58 25 0 51 7 76 22s37 34 37 57c1 27-20 57-61 89-143 215-301 358-472 429-82 32-163 48-243 48h-48c-125 0-229-59-312-177-66-94-96-191-89-291l3-52c2-36 17-107 44-212l27-106 52-127c40-82 80-149 119-199 23-32 52-65 89-99l113-107 99-68 65-42 99-41c46-14 84-21 116-21 39 0 80 10 124 29 43 20 97 53 161 101 23 23 53 65 89 127 25 59 38 103 38 133v75zm-154-75c0-16-7-44-21-85-16-30-40-58-72-86l-72-44c-45-11-76-17-92-17h-31l-75 7c-26 2-55 12-90 27l-71 45c-57 37-104 80-140 131l-82 116-58 113 804-207zm1805 387c1 192-97 365-293 518-183 144-372 216-568 217-178 0-318-63-418-188l-4-31c0-89 31-133 94-133 47-1 68 29 64 88v48c98 60 194 89 287 89 153 0 306-67 459-201s229-275 229-424c-1-48-14-85-42-112-34-30-81-43-140-38l-89 7c-390 186-619 279-688 279-62 0-110-21-144-62-59-68-89-142-89-222-1-187 119-342 358-463 199-101 402-151 610-152h54c101 0 151 26 151 79 0 20-10 39-31 56-20 17-41 26-61 26-18 0-38-10-58-31h-83c-246 1-443 61-592 180-123 98-184 203-184 315 0 87 40 130 120 130 39 0 86-16 140-48 299-174 512-262 640-262 146 0 236 77 268 233l10 102zm1613-3c0 192-98 364-294 518-182 144-371 216-567 217-179 0-318-63-419-188l-3-31c0-89 31-133 93-133 48-1 69 29 64 88v48c99 60 195 89 288 89 153 0 306-67 459-201 152-134 229-275 228-424 0-48-14-85-41-113-34-29-81-42-140-37l-89 7c-391 186-620 279-688 279-62 0-110-21-144-62-60-68-89-142-90-222 0-187 120-342 359-463 199-101 402-151 609-152h55c100 0 151 26 151 79 0 20-10 39-31 56-20 17-41 26-61 26-19 0-38-10-59-31h-82c-246 1-444 61-592 180-123 98-184 203-184 315 0 87 40 130 120 130 39 0 86-16 140-48 299-174 512-262 640-262 146 0 235 77 268 233l10 102zm1650-246c0 226-81 445-245 658-176 226-374 340-595 340-99 0-193-26-285-78-158-144-237-322-237-534-1-187 52-356 156-507 80-117 181-213 303-288 122-76 248-114 378-114 226 0 381 83 466 249 39 82 59 174 59 274zm-168 82c0-132-31-236-93-311-68-84-167-126-294-126h-48c-110 0-210 38-300 114-90 75-156 167-200 274-54 137-81 265-81 384 0 127 34 233 100 318 73 91 173 136 298 136 189 0 343-87 462-261 105-153 157-329 156-528zm1421-238c-27 38-64 58-110 58-36 0-54-13-54-40l6-16c0-102-17-153-51-153-64 21-159 75-284 162-64 46-161 113-291 202l2 754c16 22 24 45 24 68 0 53-37 79-110 79-61 0-92-27-92-82 0-16 8-38 24-65l-13-1243c0-39 28-58 85-58 53 0 79 21 79 65l1 301c276-210 484-333 626-368h20c92 0 137 112 138 336zm450-785c0 29-5 67-16 113 0 75-31 113-91 113l-37-10c-38-7-57-47-57-120 0-48 7-95 23-141 22-59 53-89 91-89 24 0 48 13 71 38 11 29 16 61 16 96zm4 1794c0 61-40 92-120 93-75 0-113-24-113-72 0-25 18-55 55-89l-3-1117c-16-41-24-65-24-71 0-64 31-96 93-97 73 0 109 35 109 103 1 25-6 55-20 89l2 1092c14 25 21 48 21 69zm1655-931c-29 16-58 31-85 44-60 28-133 54-220 80-151 41-292 73-422 96-177 30-281 45-313 45-32 115-49 203-51 264v72c-2 66 10 129 35 188 46 105 122 158 229 157l38 4c130 0 261-51 394-152 105-80 177-171 218-274l-10-34c-5-39 16-58 61-59 26 0 51 8 76 23 25 14 38 33 38 56 0 27-21 57-62 89-143 215-300 358-472 429-82 32-163 48-243 48h-48c-125 1-229-58-311-177-67-93-97-190-90-291l3-51c3-37 17-108 44-213l28-106 51-127c41-82 80-148 119-198 23-32 53-66 89-100l113-106 99-69 65-41 99-41c46-14 85-21 117-21 38 0 79 9 123 29 43 19 97 53 161 100 23 23 53 65 89 127 26 59 38 104 38 133v76zm-154-75c0-16-7-45-21-86-16-29-40-58-72-85l-72-45c-45-11-76-17-92-17h-31l-75 7c-25 3-55 12-90 27l-71 46c-57 36-104 80-140 130l-82 117-58 113 804-207zm1805 387c1 191-97 364-293 517-182 144-372 217-568 217-178 0-318-62-418-187l-4-31c0-89 31-134 94-134 47 0 68 30 64 89v48c98 59 194 88 288 88 153 0 305-67 458-201s229-275 229-423c0-48-14-86-42-113-34-30-81-42-140-37l-89 7c-390 185-619 278-688 278-61 0-109-20-144-61-59-69-89-143-89-223-1-187 119-341 358-463 199-100 402-151 610-151h54c101-1 151 26 151 78 0 21-10 39-30 57-21 17-41 25-62 25-18 0-38-10-58-30h-82c-247 0-444 60-592 179-124 98-185 204-185 315 0 87 40 130 120 130 39 0 86-16 141-48 298-174 512-261 639-261 147-1 236 77 268 232l10 103z"/><path class="fil6" d="m10537 17660c-1168-805-2606-483-3733 627-559 550-1164 1355-371 1873 359 234 1014 357 1417 400 1307 139 1365 1034 2250 1555 805 474 1240 81 1422-770 251-1175 124-2919-985-3685zm3317-3499c-1476-870-3321 1986-1963 2783 601 353 1501-40 2008-763 406-580 645-1613-45-2020zm-2881-1537c-1069-534-2111 1110-1907 2178 61 322 198 766 608 966 1419 690 2756-2415 1299-3144zm3406 4671c-1416-782-3348 1749-1957 2507 1401 764 3333-1748 1957-2507zm-6247-3273c-1364-917-2466 2005-1120 2937 672 465 1394-137 1640-975 148-501 129-1526-520-1962zm-367-879c-204-137-368 300-167 439 100 69 208-20 245-146 22-75 19-228-78-293zm6606 446c-113-218-467 85-358 304 55 109 193 82 285-10 56-55 127-190 73-294zm820 3401c-45-242-472-53-430 188 21 121 161 134 276 73 69-37 176-147 154-261zm-4017-5058c-113-218-468 85-358 304 54 109 192 82 285-10 55-55 126-190 73-294z"/><path class="fil6" d="m37376 7645c-29-156-306-34-279 123 14 78 104 87 179 47 45-24 114-95 100-170zm-532-2205c-73-141-303 56-232 198 36 70 125 53 185-7 36-35 82-123 47-191zm-2073-1074c-73-141-303 55-232 197 35 71 125 54 185-6 36-36 82-124 47-191zm-2210 785c-132-89-239 195-108 285 65 45 135-13 159-95 14-48 12-147-51-190zm238 570c-884-594-1599 1300-726 1904 436 302 904-88 1064-632 95-325 83-989-338-1272zm1842-906c-693-347-1368 719-1237 1412 40 208 129 497 395 626 920 447 1787-1566 842-2038zm1868 997c-957-565-2153 1287-1273 1804 390 228 974-26 1302-495 263-376 419-1046-29-1309zm340 2031c-918-507-2170 1134-1268 1626 908 495 2160-1134 1268-1626zm-2491 237c-757-522-1689-313-2420 406-363 357-754 879-240 1215 232 152 657 231 918 259 847 90 885 670 1459 1008 522 307 804 53 922-499 163-762 81-1892-639-2389z"/></svg>
